<svg xmlns="http://www.w3.org/2000/svg" viewBox="0 0 900 300">
  <defs>
    <linearGradient id="bg" x1="0%" y1="0%" x2="100%" y2="100%">
      <stop offset="0%" style="stop-color:#1a1a2e"/>
      <stop offset="50%" style="stop-color:#16213e"/>
      <stop offset="100%" style="stop-color:#0f3460"/>
    </linearGradient>
    <linearGradient id="tomato-shine" x1="30%" y1="0%" x2="70%" y2="100%">
      <stop offset="0%" style="stop-color:#ff6b6b"/>
      <stop offset="100%" style="stop-color:#c0392b"/>
    </linearGradient>
    <linearGradient id="cart-grad" x1="0%" y1="0%" x2="0%" y2="100%">
      <stop offset="0%" style="stop-color:#e8e8e8"/>
      <stop offset="100%" style="stop-color:#bbb"/>
    </linearGradient>
    <filter id="glow">
      <feGaussianBlur stdDeviation="3" result="blur"/>
      <feMerge>
        <feMergeNode in="blur"/>
        <feMergeNode in="SourceGraphic"/>
      </feMerge>
    </filter>
    <filter id="shadow">
      <feDropShadow dx="0" dy="2" stdDeviation="4" flood-color="#000" flood-opacity="0.3"/>
    </filter>
  </defs>

  <!-- Background -->
  <rect width="900" height="300" fill="url(#bg)" rx="12"/>

  <!-- Subtle grid pattern -->
  <g opacity="0.04" stroke="#fff" stroke-width="1">
    <line x1="0" y1="50" x2="900" y2="50"/>
    <line x1="0" y1="100" x2="900" y2="100"/>
    <line x1="0" y1="150" x2="900" y2="150"/>
    <line x1="0" y1="200" x2="900" y2="200"/>
    <line x1="0" y1="250" x2="900" y2="250"/>
    <line x1="150" y1="0" x2="150" y2="300"/>
    <line x1="300" y1="0" x2="300" y2="300"/>
    <line x1="450" y1="0" x2="450" y2="300"/>
    <line x1="600" y1="0" x2="600" y2="300"/>
    <line x1="750" y1="0" x2="750" y2="300"/>
  </g>

  <!-- Decorative circles -->
  <circle cx="50" cy="50" r="80" fill="#e53935" opacity="0.06"/>
  <circle cx="850" cy="250" r="100" fill="#4caf50" opacity="0.06"/>
  <circle cx="750" cy="30" r="40" fill="#ff9800" opacity="0.05"/>

  <!-- Shopping Cart Icon -->
  <g transform="translate(100, 90)" filter="shadow">
    <!-- Cart body -->
    <path d="M10,20 L25,20 L22,55 C22,58 19,60 16,60 L-15,60 C-18,60 -21,58 -21,55 L-28,10 L-38,10"
          fill="none" stroke="url(#cart-grad)" stroke-width="5" stroke-linecap="round" stroke-linejoin="round"/>
    <!-- Cart wheels -->
    <circle cx="-12" cy="70" r="6" fill="none" stroke="#ccc" stroke-width="4"/>
    <circle cx="16" cy="70" r="6" fill="none" stroke="#ccc" stroke-width="4"/>
    <!-- Cart handle -->
    <path d="M-38,10 L-48,10" stroke="#ccc" stroke-width="5" stroke-linecap="round"/>

    <!-- Tomato in cart -->
    <g transform="translate(-8, 28)">
      <!-- Stem -->
      <path d="M0,-8 C-2,-14 -6,-16 -4,-12 C-6,-14 -8,-13 -6,-10" fill="#4caf50" stroke="#388e3c" stroke-width="0.8"/>
      <rect x="-1" y="-9" width="2" height="5" rx="1" fill="#795548"/>
      <!-- Body -->
      <ellipse cx="0" cy="0" rx="14" ry="12" fill="url(#tomato-shine)"/>
      <ellipse cx="-5" cy="-4" rx="5" ry="3.5" fill="#ff8a80" opacity="0.5"/>
    </g>

    <!-- Second tomato -->
    <g transform="translate(16, 32) scale(0.8)">
      <path d="M0,-8 C-2,-14 -6,-16 -4,-12 C-6,-14 -8,-13 -6,-10" fill="#4caf50" stroke="#388e3c" stroke-width="0.8"/>
      <rect x="-1" y="-9" width="2" height="5" rx="1" fill="#795548"/>
      <ellipse cx="0" cy="0" rx="14" ry="12" fill="url(#tomato-shine)"/>
      <ellipse cx="-5" cy="-4" rx="5" ry="3.5" fill="#ff8a80" opacity="0.5"/>
    </g>

    <!-- Green item (broccoli-ish) -->
    <g transform="translate(-18, 35)">
      <circle cx="0" cy="-2" r="6" fill="#66bb6a"/>
      <circle cx="5" cy="-5" r="5" fill="#81c784"/>
      <circle cx="-4" cy="-5" r="4.5" fill="#a5d6a7"/>
      <rect x="-1" y="2" width="3" height="7" rx="1" fill="#795548"/>
    </g>
  </g>

  <!-- Main Title -->
  <text x="220" y="135" font-family="'Segoe UI', Helvetica, Arial, sans-serif" font-size="56" font-weight="700" fill="#ffffff" filter="glow">
    Woodman's Cart
  </text>

  <!-- Subtitle -->
  <text x="222" y="172" font-family="'Segoe UI', Helvetica, Arial, sans-serif" font-size="20" fill="#8eacc1" font-weight="300">
    Automated grocery shopping for ShopWoodmans.com
  </text>

  <!-- Tech badges -->
  <g transform="translate(222, 195)">
    <!-- Electron badge -->
    <rect x="0" y="0" width="85" height="28" rx="14" fill="#47848f" opacity="0.25" stroke="#47848f" stroke-width="1"/>
    <text x="42" y="18" font-family="'Segoe UI', monospace" font-size="12" fill="#9feaf9" text-anchor="middle">Electron</text>

    <!-- Playwright badge -->
    <rect x="95" y="0" width="95" height="28" rx="14" fill="#2d8c3c" opacity="0.25" stroke="#2d8c3c" stroke-width="1"/>
    <text x="142" y="18" font-family="'Segoe UI', monospace" font-size="12" fill="#45d463" text-anchor="middle">Playwright</text>

    <!-- Docker badge -->
    <rect x="200" y="0" width="78" height="28" rx="14" fill="#2496ed" opacity="0.25" stroke="#2496ed" stroke-width="1"/>
    <text x="239" y="18" font-family="'Segoe UI', monospace" font-size="12" fill="#6cb5f5" text-anchor="middle">Docker</text>

    <!-- Claude AI badge -->
    <rect x="288" y="0" width="92" height="28" rx="14" fill="#d97706" opacity="0.25" stroke="#d97706" stroke-width="1"/>
    <text x="334" y="18" font-family="'Segoe UI', monospace" font-size="12" fill="#fbbf24" text-anchor="middle">Claude AI</text>
  </g>

  <!-- Decorative speed lines -->
  <g opacity="0.08" stroke="#fff" stroke-width="2">
    <line x1="680" y1="100" x2="870" y2="100"/>
    <line x1="700" y1="120" x2="850" y2="120"/>
    <line x1="720" y1="140" x2="880" y2="140"/>
    <line x1="690" y1="160" x2="840" y2="160"/>
  </g>

  <!-- Lightning bolt (speed) -->
  <g transform="translate(810, 85)" opacity="0.15">
    <polygon points="20,0 8,30 18,30 5,55 35,22 22,22 35,0" fill="#ffd700"/>
  </g>
</svg>
